<?xml version="1.0" encoding="utf-8"?>
<!-- Generator: Adobe Illustrator 24.0.0, SVG Export Plug-In . SVG Version: 6.00 Build 0)  -->
<svg version="1.1" id="Layer_1" xmlns="http://www.w3.org/2000/svg" xmlns:xlink="http://www.w3.org/1999/xlink" x="0px" y="0px"
	 viewBox="0 0 59 51.1" style="enable-background:new 0 0 59 51.1;" xml:space="preserve">
<style type="text/css">
	.st0{fill-rule:evenodd;clip-rule:evenodd;fill:#00BFFF;}
</style>
<title>logo-dot</title>
<path class="st0" d="M19.3,46.1c-3.3-0.7-6.4-2.3-8.7-4.6c-3.7-3.8-7.3-8.2-6.9-13.6c0.5-6.5-0.6-14,7-18.1c0.2-0.2,0.3-0.4,0.3-0.6
	c0.6-2.2,2.2-2.9,4.3-2.9c1.4,0,2.1-0.7,2.4-2.1c0.7-3,0.9-3.5,3.4-2.9c2.1,0.5,3.7-0.8,5.7-0.4c3.2,0.6,6.2-2.2,9.8-0.2
	c1.7,0.9,4.3,0.2,6.5,0.4c2.7,0.2,2.4,3.7,4.6,4.1c1.7,0.1,3.1,1.5,3.3,3.1c0.2,0.9,0.6,1.8,1.1,2.6c3,4.6,3.5,9.8,4.2,14.9
	c0.2,1.2,0.1,2.4-0.3,3.5c-1.3,3.3-2.7,6.6-4.2,9.8c-0.5,1.1-1.3,2-2.2,2.7c-4.3,3.4-9.4,5.8-14.9,6.9c-1.2,0.2-2.7,0.7-3.5,0.2
	c-3.4-1.9-7.9,1.1-10.7-2.8C20.5,45.9,19.8,46.1,19.3,46.1"/>
<path class="st0" d="M44.2,16.2c2.3,1.9,4,4.5,4.8,7.3c1.3,4.5,2.2,9.5-0.5,13.5c-3.2,4.9-5.5,11.1-13.1,11
	c-0.2,0.1-0.4,0.2-0.5,0.3c-1.4,1.4-2.9,1.4-4.6,0.4c-1.1-0.6-1.9-0.4-2.7,0.6c-1.9,2-2.2,2.3-3.9,0.8c-1.4-1.3-3.2-1-4.6-2.1
	c-2.2-1.9-5.8-0.9-7.7-4c-0.9-1.4-3.3-2-4.9-3c-2-1.3-0.3-3.9-1.8-5.2c-1.3-0.9-1.8-2.5-1.3-3.8c0.2-0.8,0.3-1.7,0.2-2.5
	c-0.3-4.8,1.5-9.1,3.1-13.4c0.4-1,0.9-1.9,1.7-2.6c2.4-2,4.9-4,7.4-5.8c0.9-0.6,1.8-1,2.9-1.2c4.8-0.8,9.8-0.5,14.5,1
	c1,0.3,2.4,0.6,2.8,1.4c1.8,2.9,6.6,2.5,7.1,6.7C43.1,15.8,43.8,16,44.2,16.2"/>
<path class="st0" d="M28.2,9.8c1.7-1.9,4-3.3,6.5-3.9c4-0.9,8.4-1.5,11.9,0.9c4.3,3,9.8,5.3,9.7,12c0,0.2,0.1,0.3,0.3,0.5
	c1.3,1.3,1.2,2.6,0.3,4.1c-0.6,0.9-0.3,1.6,0.5,2.4c1.8,1.7,2,2,0.7,3.5c-1.1,1.2-0.9,2.8-1.9,4c-1.7,1.9-0.8,5-3.6,6.6
	c-1.3,0.8-1.8,2.8-2.7,4.2c-1.2,1.7-3.5,0.1-4.6,1.4c-0.8,1.1-2.2,1.5-3.4,1c-0.7-0.2-1.5-0.3-2.2-0.3c-4.3,0.1-8-1.7-11.8-3.3
	c-0.9-0.4-1.6-0.9-2.3-1.6c-1.8-2.2-3.5-4.4-5.1-6.7c-0.5-0.8-0.9-1.7-1-2.6c-0.7-4.2-0.4-8.6,0.9-12.7c0.3-0.9,0.5-2.1,1.2-2.4
	c2.5-1.5,2.2-5.7,5.9-6C27.8,10.7,28,10.2,28.2,9.8"/>
<path class="st0" d="M19.4,42.8c-2.5,0.6-5.2,0.3-7.5-0.6c-3.8-1.6-7.7-3.7-9.1-7.8C1,29.5-2.1,24.4,2,19.1c0.1-0.2,0.1-0.4,0-0.6
	c-0.3-1.8,0.6-2.8,2.1-3.5c1-0.4,1.2-1.1,1-2.3c-0.4-2.4-0.4-2.8,1.5-3.2C8.2,9.2,9,7.8,10.5,7.4c2.4-0.5,3.6-3.6,6.8-3.3
	c1.5,0.1,3.1-1.2,4.6-1.8c1.9-0.7,2.9,1.9,4.5,1.6C27.6,3.5,29,4,29.7,5.2c0.4,0.6,1,1.1,1.6,1.5c3.5,2.4,5.5,6,7.6,9.6
	c0.5,0.8,0.8,1.7,0.9,2.6c0.2,2.8,0.2,5.6,0.2,8.4c0,0.9-0.3,1.9-0.7,2.7c-1.9,3.9-4.7,7.2-8.2,9.8c-0.7,0.5-1.6,1.3-2.4,1.3
	c-2.9-0.3-5.1,3.3-8.3,1.3C20.3,42.3,19.8,42.7,19.4,42.8"/>
</svg>
