<?xml version="1.0" encoding="UTF-8"?>
<svg id="Layer_1" data-name="Layer 1" xmlns="http://www.w3.org/2000/svg" viewBox="0 0 335.61 333.95">
  <defs>
    <style>
      .cls-1, .cls-2, .cls-3 {
        stroke-width: 0px;
      }

      .cls-2 {
        fill: #fff;
      }

      .cls-3 {
        fill: #00bfff;
      }
    </style>
  </defs>
  <path class="cls-3" d="m320.58,325.5c-13.39,2.27-27.02,6.52-41.42,5.54-8.18-.56-16.39-.71-24.59-.76-5.1-.03-10.2.63-15.3.67-6.56.05-13.12-.31-19.68-.31-16.88,0-33.76-.15-50.63.25-7.66.18-15.29,2.21-22.93,2.2-9.01,0-18-1.64-27.02-1.96-7.04-.24-14.35-.58-21.08,1.04-5.99,1.44-11.91,1.78-17-.32-7.5-3.1-14.62-2.82-22.27-1.97-5.86.65-12.08-1.12-17.8-.03-10.35,1.97-17.83-4.56-26.33-7.73-3.09-1.15-5.95-5.61-6.95-9.11-2.17-7.62-3.33-15.56-4.35-23.45-.38-2.97,1.74-6.37,1.06-9.18-2.16-8.94-3.06-17.62-.61-26.73.8-2.96-1.58-6.63-1.55-9.97.15-12.98,1.09-25.89-1.33-38.87-1.05-5.63.5-11.71.64-17.59.17-6.9-.19-13.83.23-20.71.31-5.1,1.29-10.19,2.43-15.19.28-1.23,2.2-2.53,3.62-2.98,4.24-1.34,5.44-4.29,2.79-7.8-.7-.93-1.37-2.01-2.33-2.58-6.9-4.13-6.33-11.21-6.64-17.62-.58-11.79-.61-23.6-.7-35.41-.03-3.81.62-7.62.7-11.43.14-6.71-.23-13.45.2-20.14.27-4.16,1.83-8.23,2.34-12.4.2-1.65-.64-3.56-1.4-5.17-2.19-4.66-.92-14.81,2.7-18.53,1.21-1.25,2.79-2.45,4.42-2.92,4.39-1.27,8.24-2.24,11.06-6.96C24.2,1.88,40.2.01,45.82,3.48c2.15,1.32,3.14.71,5.38-.46,3.49-1.82,8.07-1.88,12.21-2.03,4.89-.18,9.81.47,14.72.52,9.25.08,18.5-.12,27.75,0,7.14.09,14.28.88,21.41.66,7.12-.22,14.2-1.68,21.32-1.87,5.36-.15,10.74,1.16,16.12,1.26,17.23.31,34.46.45,51.69.43,3.52,0,7.04-1.42,10.56-1.43,4.37-.02,8.75,1.13,13.11,1.11,11.02-.06,22.03-.79,33.05-.7,9.57.08,19.13.92,28.7,1.46.99.06,2.16.77,2.91.43,6.74-2.99,10.62,1.96,13.84,5.89,4.34,5.29,9.58,11.29,10.56,17.59,1.88,12.07.92,24.56,1.36,36.87.21,5.95,1.02,11.88,1.34,17.83.46,8.63,1.97,17.45.76,25.86-1.58,10.92.81,21.55.16,32.32-.56,9.22-.92,18.46-.87,27.69.04,7.24.97,14.47,1.24,21.72.15,4.09,0,8.23-.42,12.31-.9,8.78-.75,17.38,1.21,26.1.86,3.83-.63,8.13-.7,12.23-.28,15.27-.54,30.54-.52,45.81,0,3.17,1.23,6.34,1.91,9.5.1.47.62,1.11.47,1.35-2.66,3.95-.45,9.39-4.39,13.11-3.55,3.35-6.62,7.26-9.51,11.21-.88,1.2-.43,3.36-.61,5.27Z"/>
  <path class="cls-1" d="m243.32,295.2c-.28.09-.56.17-.84.26,1.64,2.6,3.57,5.07,4.85,7.83,1.33,2.86,2.87,4.25,6.3,4.44,5.22.3,10.41,1.44,15.55,2.49,2.4.49,3.4,2.09,1.68,4.42-.66.89-1.38,1.72-2.1,2.6,2.72,1.79,11.19.43,11.68-2.14,1.35-7.03,6.57-6.45,11.49-6.67,7.65-.34,15.3-.57,23.11-.84.3-4.32.39-7.49.77-10.63.39-3.28.98-6.54,1.61-9.79,1.86-9.59-3.95-15.85-13.51-15.62-8.71.21-17.45-.55-26.16-1.16-3.72-.26-6.04-5-3.94-8.42,2.58-4.18,5.69-7.49,11.21-8.93,8.52-2.22,16.63-6.01,24.9-9.19.54-.21,1.11-.79,1.32-1.33,2.2-5.63,6.11-10.72,4.85-17.42-.55-2.9-.61-6.04-.15-8.96,1.43-9.05-.5-17.79-2.13-26.53-.64-3.41-3.14-6.59-3.27-9.94-.19-5.13-3.18-6.4-7.1-7.45-2.24-.6-4.34-1.75-6.59-2.23-2.39-.51-4.89-.73-7.34-.69-2.97.05-5.8.83-7.73-2.73-3.23-5.98-5.03-6.14-10.78-2.3-2.4,1.6-4.96,3.09-7.64,4.14-3.49,1.37-7.28,1.99-10.73,3.43-3.51,1.47-6.76,3.55-10.02,5.31-.5,3.92-1.04,8.09-1.55,12.25-.3,2.46,3.45,9.18,5.36,9.45,8.66,1.23,16.7,4.16,24.39,8.3,2.65,1.43,5.69,3.01,4.63,6.08-.81,2.34-3.6,4.24-5.89,5.76-2,1.33-5.09,1.29-6.7,2.88-2.49,2.46-4.21,5.53-8.47,4.94-.47-.07-1.67,1.64-1.72,2.56-.17,3.38-2.02,3.93-4.71,3.13-3.63-1.08-5.47.71-6.12,3.91-1.69,8.27-3.88,16.49-1.93,25.1.69,3.05-.49,4.77-4.17,3.84-7.46-1.88-9.69-4.56-10.12-12.55-.31-5.63-.67-11.26-1.17-16.87-.54-6.04-2.29-7.54-8.35-7.89-.89-.05-1.71-.86-2.61-1.13-1.35-.41-2.89-1.21-4.1-.89-6.59,1.73-12.88,4.24-17.86,9.12-.77.76-1,2.29-1.09,3.49-.66,8.75-.98,17.53-1.96,26.24-.35,3.14-1.61,6.58-3.54,9.01-1.49,1.88-4.68,2.4-8.19,4.01-1.25-2.3-2.93-4.78-4.01-7.5-2.5-6.26-1.19-12.64-.72-19.15.72-9.97-.14-20.04.04-30.06.07-3.88,1.17-7.75,1.8-11.62,5.38.59,7.57-5.57,12.51-5.9.82-.05,1.65-.19,2.47-.14,6.73.43,13.46.83,20.18,1.38,4.55.37,7.72-2.24,11.36-4.31,4.92-2.79,5.11-6.48,4.01-11.19-.3-1.27.57-2.84.97-4.25,1.24-4.36-.3-9.1-4.13-10.66-3.35-1.36-7.19-3-10.55-2.55-9.12,1.23-17.9.7-26.53-2.29-1.83-.63-3.42-1.96-5.12-2.97,1.34-1.79,2.42-3.9,4.09-5.29,1.83-1.52,4.5-2.04,6.3-3.59,5.36-4.59,11.71-4.89,17.93-3.77,12.45,2.23,24.63-.55,36.93-.99,7.39-.26,15.21-2.21,21.05,5.25,2.12,2.71,5.68,2.39,9.04.14,2.98-2,6.54-3.58,10.05-4.25,7.53-1.44,15.21-2.07,22.8-3.25,5.13-.8,10.45-7.92,9.74-12.78-.36-2.51-.56-5.14-1.48-7.45-1.81-4.52-1.76-10.62-8.45-11.54-2.24-.31-4.53-.37-6.79-.32-3.9.09-7.8.63-11.68.5-9.09-.3-18.17-.9-27.26-1.32-1.63-.08-3.27.11-4.91.14-8.81.16-17.62.24-26.42.47-5.1.14-10.2.76-15.3.7-3.9-.05-7.42-.27-11.42,1.25-8.3,3.16-18.73-.6-22.83-6.99-2.4-3.74-1.18-6.77,3.19-7.4,3.11-.45,6.27-.61,9.42-.65,8.96-.13,17.92-.08,26.88-.23,2.46-.04,4.91-.73,7.37-.78,8.6-.18,17.2-.11,25.79-.32,5.63-.14,11.58-1.9,16.83-.63,12.64,3.05,24.5-1.97,36.76-2.02.7,0,1.45-.61,2.07-1.07,3.75-2.83,6.98-5.82,4.9-11.32-.47-1.24.21-2.94.44-4.42,1.31-8.21-5.13-15.64-13.51-15.86-3.45-.09-6.88-.93-10.33-1.16-6.93-.46-13.86-.88-20.8-1.06-7.64-.19-15.29-.09-22.93-.11-.32-.52-.65-1.03-.97-1.55,1.34-2.48,2.09-5.67,4.11-7.3,8.69-7.04,19.56-7.36,29.71-6.56,9.44.74,18.57,1.37,27.92-.42,3.94-.75,5.61-2.34,5.44-6.15-.13-3-.36-5.99-.39-8.99-.07-6.91-3.81-12.77-10.58-14.02-7.12-1.31-14.48-1.6-21.75-1.8-11.86-.34-23.73-.14-35.6-.37-6.75-.13-13.48-.72-20.23-.97-7.99-.3-15.99-.64-23.99-.64-5.6,0-11.21.48-16.8.87-2.04.14-4.15,1.18-6.06.85-10.81-1.89-21.11.67-31.37,3.38-1.45.38-3.16,2.23-3.56,3.71-1.7,6.36-3.59,12.78-4.19,19.3-.54,5.85.97,11.88.69,17.78-.19,3.92-1.02,8.45-3.27,11.44-1.71,2.28-6.08,2.55-9.66,3.87-.21-.77-.87-1.88-.7-2.85,1.69-9.84-1.58-19.31-2.02-28.97-.24-5.43-.85-10.88-.51-16.27.45-7.09-1.65-10.46-9.02-11.01-9.25-.69-18.55-.76-27.83-1.09-3.13-.11-6.29-.46-9.4-.23-10.76.8-21.5,1.88-32.26,2.71-4.88.38-10.72-1.04-13.19,4.62-2.35,5.4-3.8,11.26-5.03,17.06-1.09,5.16,1.54,9.3,6.82,10.29,8.27,1.55,16.77,1.86,25,3.55,8.65,1.77,17.1,4.52,25.6,6.95.79.23,1.34,1.33,2.21,2.24-5.13,7.54-12.86,11.03-20.86,12.34-8.03,1.32-16.45.53-24.68.21-6.31-.25-17.36,5.88-19.34,11.45-.31.86.03,1.94.03,2.91,0,6.29-.06,12.58.04,18.87.04,2.19.47,4.38.76,6.57.21,1.59.84,3.22.63,4.75-.55,4.17,2.93,9.03-2.02,12.48-.1.07.14.61.19.94,1.2,7.15,3.91,13.56,9.74,18.14,3.88,3.05,8.04,5.78,12.17,8.5.62.41,1.98.36,2.64-.06,5.26-3.33,10.54-4.87,16.61-1.87,1.62.8,3.87.3,5.82.48,4.85.45,9.77.62,14.51,1.63,1.58.33,3.79,2.86,3.8,4.39.02,4.19-6,12.78-10.06,13.72-5.44,1.25-11.01,2.02-16.39,3.48-6.29,1.71-12.47,3.84-18.62,6.02-1.62.57-3.33,1.69-4.37,3.03-6.2,8.01-14.33,14.79-14.93,26.24-.36,6.8-3.11,13.52-3.14,20.28-.05,11.82,1.12,23.65,1.85,35.47.54,8.79,1.12,17.58,1.81,26.36.46,5.9,6.69,12.57,12.42,11.99,6.81-.7,13.48-2.84,19.37-4.17.83-4.9,1.93-8.88,2.09-12.9.32-8.02.17-16.05.09-24.08-.02-1.96-.66-3.9-.81-5.87-.19-2.46-.19-4.94-.25-7.41-.11-4.68-.21-9.37-.29-14.05-.03-1.46.13-2.94.03-4.39-.18-2.65-.49-5.28-.74-7.88,1.53-2.12,3.37-4.9,5.44-7.5,1.87-2.36,3.57-5.53,6.08-6.58,5.67-2.37,11.8-3.62,17.73-5.37,5.99-1.78,12.03-5.26,17.94-5.03,8.21.31,13.73-4.23,20.14-7.36,1.16-.57,2.78-2.65,2.5-3.31-1.83-4.21,1.58-7.68,1.77-11.69.28-6.13-1.44-12.38,1.21-19.13,2.37-6.03-.58-14.15-1.21-21.35-.04-.48-.35-.93-.53-1.4-1.41-3.79-2.58-7.69-4.35-11.31-.75-1.54-2.62-3.29-4.2-3.55-5.95-.98-11.99-1.37-17.99-2.03-1.64-.18-3.43-.21-4.86-.91-4.75-2.31-9.54-3.19-14.9-2.82-2.87.2-6.08-1.47-8.81-2.92-3.72-1.97-3.91-6.93-.99-10.01,4.86-5.15,11.32-4.93,17.54-5.48,5.2-.47,10.43-.56,15.63-1.06,2.68-.26,5.3-1.13,7.97-1.57,2.85-.47,5.99-.13,8.52-1.24,4.07-1.78,4.55-6,4.92-9.96.25-2.72,4.49-7.1,6.84-7.11,4.53-.03,7.72,1.16,7.2,6.71-.29,3.12,0,6.3-.03,9.45-.04,6.23-.18,12.47-.15,18.7.02,4.62.42,9.25.32,13.87-.21,10.01-.7,20.02-.95,30.03-.26,10.39-.06,20.8-.65,31.17-.45,7.84-2.15,15.6-2.65,23.44-.28,4.44.78,8.96,1.16,13.45.22,2.55.27,5.11.41,7.67.28,5.07,1.16,10.19.72,15.19-.65,7.33-2.2,14.58-3.5,21.84-.34,1.92-1.16,5.33-1.8,5.34-3.25.05-7.33,3.12-9.84-1.95.79-1.12,1.62-2.29,2.95-4.16-7.21,1.28-8.12-3.78-8.74-7.76-1.87-11.93-3.04-23.97-4.59-35.96-.42-3.23-1.2-7.45-5.36-6.65-8.56,1.64-16.53.76-23.69-2.7-.95,2.35-1.27,5.15-2.83,6.61-3.24,3.04-3.51,6.51-3.3,10.45.1,1.94-.37,3.9-.54,5.85-.6,7.04-1.28,14.07-1.72,21.11-.22,3.47.05,6.97.06,10.46,0,10.3-1.96,20.86,4.18,30.33.33.51.26,1.29.33,1.95.46,4.29,2.11,5.69,6.96,4.97,5.39-.8,11.98-3.49,15.9,3.72.32.59,2.1.36,3.2.54,6.53,1.07,12.65-1.25,18.96-2.12,5.05-.7,10.25-.25,15.39-.41,8.75-.29,17.53-1.27,26.21-.67,3.19.22,6.2.21,9.37.07,7.03-.31,14.31,1.08,21.06-.3,7.4-1.51,14.52-3.96,22.26-3.56,1.25.07,3.8-2.24,3.71-3.27-.26-2.97.81-4.63,3.08-6.18,1.01-.7,2.1-2.04,2.21-3.18.48-4.93.51-9.89.91-14.83.15-1.82.53-4.87,1.44-5.13,2.7-.77,5.84-1,8.57-.37,4.26.98,2.83,5.43,3.99,8.31,1.11,2.74,2.03,5.55,3.04,8.33Z"/>
  <path class="cls-2" d="m243.32,295.2c-1.01-2.78-1.93-5.59-3.04-8.33-1.17-2.88.26-7.33-3.99-8.31-2.73-.62-5.87-.39-8.57.37-.91.26-1.29,3.32-1.44,5.13-.41,4.93-.44,9.9-.91,14.83-.11,1.14-1.19,2.48-2.21,3.18-2.27,1.55-3.34,3.21-3.08,6.18.09,1.03-2.46,3.34-3.71,3.27-7.74-.4-14.86,2.04-22.26,3.56-6.75,1.38-14.04-.01-21.06.3-3.17.14-6.18.15-9.37-.07-8.68-.6-17.46.39-26.21.67-5.13.17-10.34-.28-15.39.41-6.31.87-12.43,3.19-18.96,2.12-1.1-.18-2.88.05-3.2-.54-3.93-7.21-10.52-4.52-15.9-3.72-4.85.72-6.5-.68-6.96-4.97-.07-.66,0-1.44-.33-1.95-6.14-9.46-4.17-20.03-4.18-30.33,0-3.49-.27-6.99-.06-10.46.44-7.05,1.12-14.08,1.72-21.11.17-1.95.64-3.92.54-5.85-.21-3.94.06-7.41,3.3-10.45,1.56-1.46,1.88-4.26,2.83-6.61,7.16,3.46,15.13,4.34,23.69,2.7,4.17-.8,4.94,3.42,5.36,6.65,1.56,11.98,2.73,24.02,4.59,35.96.62,3.98,1.53,9.04,8.74,7.76-1.32,1.87-2.15,3.04-2.95,4.16,2.51,5.07,6.59,2.01,9.84,1.95.64-.01,1.46-3.43,1.8-5.34,1.3-7.26,2.84-14.51,3.5-21.84.45-5-.44-10.12-.72-15.19-.14-2.56-.19-5.12-.41-7.67-.38-4.49-1.44-9.01-1.16-13.45.5-7.84,2.21-15.6,2.65-23.44.59-10.37.39-20.78.65-31.17.25-10.01.74-20.02.95-30.03.1-4.62-.3-9.24-.32-13.87-.03-6.23.11-12.47.15-18.7.02-3.15-.26-6.33.03-9.45.51-5.54-2.68-6.74-7.2-6.71-2.35.01-6.58,4.39-6.84,7.11-.37,3.96-.85,8.18-4.92,9.96-2.53,1.11-5.68.78-8.52,1.24-2.67.44-5.29,1.31-7.97,1.57-5.2.5-10.43.59-15.63,1.06-6.22.56-12.68.33-17.54,5.48-2.91,3.09-2.73,8.04.99,10.01,2.73,1.45,5.94,3.12,8.81,2.92,5.37-.37,10.16.51,14.9,2.82,1.43.7,3.22.73,4.86.91,6,.66,12.04,1.05,17.99,2.03,1.59.26,3.45,2.01,4.2,3.55,1.76,3.61,2.93,7.52,4.35,11.31.17.47.49.92.53,1.4.63,7.2,3.58,15.32,1.21,21.35-2.64,6.74-.92,13-1.21,19.13-.19,4.01-3.59,7.48-1.77,11.69.28.65-1.34,2.74-2.5,3.31-6.41,3.13-11.93,7.67-20.14,7.36-5.91-.23-11.94,3.25-17.94,5.03-5.93,1.76-12.06,3.01-17.73,5.37-2.51,1.05-4.21,4.22-6.08,6.58-2.07,2.6-3.91,5.38-5.44,7.5.25,2.6.56,5.23.74,7.88.1,1.46-.05,2.93-.03,4.39.08,4.68.18,9.37.29,14.05.06,2.47.06,4.95.25,7.41.15,1.97.79,3.91.81,5.87.08,8.03.23,16.06-.09,24.08-.16,4.02-1.26,8-2.09,12.9-5.89,1.33-12.56,3.47-19.37,4.17-5.72.58-11.96-6.09-12.42-11.99-.68-8.78-1.27-17.57-1.81-26.36-.73-11.82-1.9-23.65-1.85-35.47.03-6.76,2.78-13.48,3.14-20.28.6-11.45,8.73-18.22,14.93-26.24,1.04-1.35,2.74-2.46,4.37-3.03,6.15-2.17,12.33-4.31,18.62-6.02,5.38-1.46,10.94-2.23,16.39-3.48,4.06-.93,10.08-9.53,10.06-13.72,0-1.53-2.22-4.06-3.8-4.39-4.74-1-9.66-1.17-14.51-1.63-1.95-.18-4.2.33-5.82-.48-6.06-3.01-11.35-1.47-16.61,1.87-.65.41-2.02.47-2.64.06-4.13-2.72-8.28-5.45-12.17-8.5-5.83-4.58-8.54-10.99-9.74-18.14-.05-.33-.3-.87-.19-.94,4.96-3.46,1.47-8.32,2.02-12.48.2-1.53-.43-3.16-.63-4.75-.29-2.19-.72-4.38-.76-6.57-.1-6.29-.04-12.58-.04-18.87,0-.98-.33-2.06-.03-2.91,1.98-5.57,13.04-11.7,19.34-11.45,8.23.32,16.65,1.11,24.68-.21,8.01-1.31,15.74-4.8,20.86-12.34-.87-.91-1.41-2.01-2.21-2.24-8.5-2.44-16.96-5.18-25.6-6.95-8.23-1.69-16.73-2-25-3.55-5.28-.99-7.91-5.13-6.82-10.29,1.22-5.79,2.68-11.66,5.03-17.06,2.47-5.66,8.31-4.25,13.19-4.62,10.76-.83,21.5-1.91,32.26-2.71,3.11-.23,6.27.11,9.4.23,9.28.33,18.58.4,27.83,1.09,7.38.55,9.48,3.92,9.02,11.01-.35,5.39.26,10.85.51,16.27.43,9.67,3.71,19.14,2.02,28.97-.17.97.5,2.08.7,2.85,3.58-1.31,7.95-1.59,9.66-3.87,2.24-2.98,3.08-7.51,3.27-11.44.28-5.91-1.23-11.93-.69-17.78.6-6.51,2.49-12.94,4.19-19.3.4-1.49,2.11-3.33,3.56-3.71,10.26-2.7,20.56-5.27,31.37-3.38,1.91.33,4.02-.71,6.06-.85,5.6-.38,11.2-.87,16.8-.87,8,0,15.99.34,23.99.64,6.75.26,13.48.84,20.23.97,11.86.23,23.74.03,35.6.37,7.27.21,14.63.49,21.75,1.8,6.77,1.25,10.52,7.1,10.58,14.02.03,3,.25,5.99.39,8.99.17,3.81-1.5,5.4-5.44,6.15-9.35,1.79-18.48,1.16-27.92.42-10.15-.8-21.02-.48-29.71,6.56-2.02,1.63-2.77,4.83-4.11,7.3.32.52.65,1.03.97,1.55,7.64.03,15.29-.08,22.93.11,6.94.17,13.87.59,20.8,1.06,3.46.23,6.88,1.07,10.33,1.16,8.38.22,14.82,7.65,13.51,15.86-.24,1.48-.91,3.18-.44,4.42,2.08,5.5-1.15,8.49-4.9,11.32-.62.47-1.38,1.07-2.07,1.07-12.26.05-24.13,5.08-36.76,2.02-5.25-1.27-11.19.49-16.83.63-8.59.21-17.2.14-25.79.32-2.46.05-4.91.74-7.37.78-8.96.15-17.92.1-26.88.23-3.14.05-6.31.21-9.42.65-4.37.63-5.59,3.67-3.19,7.4,4.1,6.39,14.53,10.15,22.83,6.99,3.99-1.52,7.52-1.3,11.42-1.25,5.09.06,10.19-.56,15.3-.7,8.8-.24,17.61-.32,26.42-.47,1.64-.03,3.28-.21,4.91-.14,9.09.43,18.17,1.03,27.26,1.32,3.88.13,7.78-.41,11.68-.5,2.26-.05,4.55,0,6.79.32,6.69.92,6.65,7.02,8.45,11.54.92,2.31,1.12,4.94,1.48,7.45.7,4.86-4.61,11.98-9.74,12.78-7.59,1.18-15.27,1.8-22.8,3.25-3.51.67-7.07,2.25-10.05,4.25-3.36,2.26-6.91,2.57-9.04-.14-5.84-7.46-13.66-5.52-21.05-5.25-12.3.44-24.48,3.22-36.93.99-6.23-1.12-12.58-.82-17.93,3.77-1.8,1.54-4.47,2.06-6.3,3.59-1.67,1.39-2.75,3.5-4.09,5.29,1.7,1.01,3.29,2.33,5.12,2.97,8.63,2.99,17.41,3.52,26.53,2.29,3.36-.45,7.2,1.19,10.55,2.55,3.83,1.55,5.37,6.3,4.13,10.66-.4,1.41-1.27,2.98-.97,4.25,1.1,4.7.91,8.4-4.01,11.19-3.64,2.06-6.82,4.68-11.36,4.31-6.72-.55-13.45-.95-20.18-1.38-.82-.05-1.65.08-2.47.14-4.94.33-7.14,6.49-12.51,5.9-.63,3.87-1.73,7.74-1.8,11.62-.19,10.02.67,20.09-.04,30.06-.47,6.51-1.78,12.88.72,19.15,1.09,2.72,2.76,5.2,4.01,7.5,3.51-1.62,6.7-2.14,8.19-4.01,1.93-2.44,3.19-5.87,3.54-9.01.97-8.71,1.29-17.49,1.96-26.24.09-1.2.32-2.73,1.09-3.49,4.97-4.88,11.26-7.4,17.86-9.12,1.21-.32,2.75.48,4.1.89.91.28,1.73,1.08,2.61,1.13,6.06.34,7.81,1.84,8.35,7.89.5,5.61.87,11.24,1.17,16.87.44,7.99,2.67,10.67,10.12,12.55,3.68.93,4.86-.79,4.17-3.84-1.95-8.61.24-16.83,1.93-25.1.65-3.2,2.49-4.99,6.12-3.91,2.69.8,4.54.25,4.71-3.13.05-.92,1.24-2.62,1.72-2.56,4.27.59,5.98-2.48,8.47-4.94,1.6-1.58,4.7-1.55,6.7-2.88,2.29-1.52,5.08-3.42,5.89-5.76,1.07-3.08-1.98-4.65-4.63-6.08-7.69-4.14-15.73-7.07-24.39-8.3-1.91-.27-5.66-6.99-5.36-9.45.51-4.17,1.05-8.33,1.55-12.25,3.26-1.76,6.51-3.84,10.02-5.31,3.45-1.45,7.24-2.06,10.73-3.43,2.68-1.05,5.24-2.54,7.64-4.14,5.75-3.84,7.55-3.68,10.78,2.3,1.93,3.56,4.75,2.78,7.73,2.73,2.45-.04,4.95.18,7.34.69,2.25.48,4.36,1.63,6.59,2.23,3.93,1.05,6.92,2.32,7.1,7.45.12,3.34,2.63,6.53,3.27,9.94,1.63,8.74,3.57,17.48,2.13,26.53-.46,2.92-.4,6.06.15,8.96,1.26,6.7-2.64,11.79-4.85,17.42-.21.54-.78,1.12-1.32,1.33-8.26,3.18-16.38,6.97-24.9,9.19-5.52,1.44-8.63,4.74-11.21,8.93-2.1,3.41.22,8.15,3.94,8.42,8.71.62,17.45,1.37,26.16,1.16,9.57-.23,15.37,6.02,13.51,15.62-.63,3.25-1.22,6.51-1.61,9.79-.38,3.14-.47,6.31-.77,10.63-7.8.28-15.46.51-23.11.84-4.93.22-10.15-.36-11.49,6.67-.49,2.58-8.96,3.94-11.68,2.14.71-.88,1.44-1.72,2.1-2.6,1.72-2.33.72-3.93-1.68-4.42-5.15-1.05-10.33-2.19-15.55-2.49-3.44-.2-4.98-1.58-6.3-4.44-1.28-2.76-3.21-5.23-4.85-7.83.28-.09.56-.17.84-.26Zm-69.06-226.82c.35.55.69,1.09,1.04,1.64,3.6-.13,7.19-.33,10.79-.37,7.03-.07,14.06.08,21.08-.11,4.51-.13,9.26-1.8,13.46-.83,6.73,1.55,11.02-1.33,15.47-5.1-4.46-7.96-6.72-10.01-10.98-10.05-8.5-.08-16.99-.19-25.49-.19-1.8,0-3.59.61-5.4.68-2.33.1-4.68-.16-7.02-.06-1.16.05-2.57.25-3.37.95-1.6,1.4-3.03,3.07-4.23,4.83-1.91,2.79-3.58,5.74-5.35,8.62Z"/>
  <path class="cls-3" d="m174.26,68.38c1.77-2.88,3.44-5.83,5.35-8.62,1.21-1.76,2.63-3.44,4.23-4.83.8-.7,2.22-.9,3.37-.95,2.33-.1,4.68.16,7.02.06,1.81-.07,3.6-.68,5.4-.68,8.5,0,16.99.1,25.49.19,4.26.04,6.52,2.09,10.98,10.05-4.45,3.77-8.75,6.65-15.47,5.1-4.19-.97-8.94.71-13.46.83-7.02.2-14.05.04-21.08.11-3.6.04-7.19.24-10.79.37-.35-.55-.69-1.09-1.04-1.64Z"/>
</svg>